<svg width="25" height="25" viewBox="0 0 40 40" fill="none" xmlns="http://www.w3.org/2000/svg">
<path d="M7.6265 7.6265C8.09532 7.15782 8.73109 6.89453 9.394 6.89453C10.0569 6.89453 10.6927 7.15782 11.1615 7.6265L20.0015 16.4665L28.8415 7.6265C29.313 7.1711 29.9445 6.91912 30.6 6.92481C31.2555 6.93051 31.8825 7.19343 32.3461 7.65695C32.8096 8.12047 33.0725 8.7475 33.0782 9.40299C33.0839 10.0585 32.8319 10.69 32.3765 11.1615L23.5365 20.0015L32.3765 28.8415C32.8319 29.313 33.0839 29.9445 33.0782 30.6C33.0725 31.2555 32.8096 31.8825 32.3461 32.346C31.8825 32.8096 31.2555 33.0725 30.6 33.0782C29.9445 33.0839 29.313 32.8319 28.8415 32.3765L20.0015 23.5365L11.1615 32.3765C10.69 32.8319 10.0585 33.0839 9.403 33.0782C8.7475 33.0725 8.12047 32.8096 7.65695 32.346C7.19343 31.8825 6.93051 31.2555 6.92481 30.6C6.91912 29.9445 7.1711 29.313 7.6265 28.8415L16.4665 20.0015L7.6265 11.1615C7.15782 10.6927 6.89453 10.0569 6.89453 9.394C6.89453 8.73109 7.15782 8.09532 7.6265 7.6265Z" fill="#125566"/>
</svg>
