<svg width="130" height="25" viewBox="0 0 130 25" fill="none" xmlns="http://www.w3.org/2000/svg">
<path d="M21.8055 10.5415H21V10.5H12V14.5H17.6515C16.827 16.8285 14.6115 18.5 12 18.5C8.6865 18.5 6 15.8135 6 12.5C6 9.1865 8.6865 6.5 12 6.5C13.5295 6.5 14.921 7.077 15.9805 8.0195L18.809 5.191C17.023 3.5265 14.634 2.5 12 2.5C6.4775 2.5 2 6.9775 2 12.5C2 18.0225 6.4775 22.5 12 22.5C17.5225 22.5 22 18.0225 22 12.5C22 11.8295 21.931 11.175 21.8055 10.5415Z" fill="#FFC107"/>
<path d="M3.15308 7.8455L6.43858 10.255C7.32758 8.054 9.48058 6.5 12.0001 6.5C13.5296 6.5 14.9211 7.077 15.9806 8.0195L18.8091 5.191C17.0231 3.5265 14.6341 2.5 12.0001 2.5C8.15908 2.5 4.82808 4.6685 3.15308 7.8455Z" fill="#FF3D00"/>
<path d="M11.9999 22.4999C14.5829 22.4999 16.9299 21.5114 18.7044 19.9039L15.6094 17.2849C14.5717 18.074 13.3036 18.5009 11.9999 18.4999C9.39891 18.4999 7.19041 16.8414 6.35841 14.5269L3.09741 17.0394C4.75241 20.2779 8.11341 22.4999 11.9999 22.4999Z" fill="#4CAF50"/>
<path d="M21.8055 10.5415H21V10.5H12V14.5H17.6515C17.2571 15.6082 16.5467 16.5766 15.608 17.2855L15.6095 17.2845L18.7045 19.9035C18.4855 20.1025 22 17.5 22 12.5C22 11.8295 21.931 11.175 21.8055 10.5415Z" fill="#1976D2"/>
<path d="M42.144 13.044H43.696V18.228C43.568 18.2707 43.3813 18.3187 43.136 18.372C42.9013 18.4253 42.624 18.4787 42.304 18.532C41.9947 18.5853 41.6533 18.628 41.28 18.66C40.9067 18.7027 40.528 18.724 40.144 18.724C39.3653 18.724 38.656 18.596 38.016 18.34C37.376 18.084 36.8267 17.7107 36.368 17.22C35.9093 16.7293 35.552 16.1267 35.296 15.412C35.0507 14.6973 34.928 13.876 34.928 12.948C34.928 12.02 35.0667 11.1987 35.344 10.484C35.632 9.75867 36.016 9.15067 36.496 8.66C36.976 8.16933 37.536 7.796 38.176 7.54C38.8267 7.284 39.52 7.156 40.256 7.156C40.7573 7.156 41.2 7.188 41.584 7.252C41.9787 7.316 42.3147 7.39067 42.592 7.476C42.8693 7.56133 43.0933 7.64667 43.264 7.732C43.4453 7.81733 43.568 7.88133 43.632 7.924L43.136 9.22C42.8267 9.01733 42.416 8.852 41.904 8.724C41.392 8.58533 40.8693 8.516 40.336 8.516C39.7707 8.516 39.2533 8.61733 38.784 8.82C38.3253 9.02267 37.9307 9.316 37.6 9.7C37.28 10.084 37.0293 10.5533 36.848 11.108C36.6667 11.652 36.576 12.2653 36.576 12.948C36.576 13.6093 36.6507 14.212 36.8 14.756C36.96 15.3 37.1947 15.7693 37.504 16.164C37.824 16.548 38.2133 16.8467 38.672 17.06C39.1413 17.2733 39.6907 17.38 40.32 17.38C40.768 17.38 41.1467 17.3587 41.456 17.316C41.776 17.2627 42.0053 17.2147 42.144 17.172V13.044ZM53.374 14.34C53.374 15.0013 53.278 15.5987 53.086 16.132C52.894 16.6653 52.622 17.124 52.27 17.508C51.9287 17.892 51.518 18.1907 51.038 18.404C50.558 18.6067 50.0353 18.708 49.47 18.708C48.9047 18.708 48.382 18.6067 47.902 18.404C47.422 18.1907 47.006 17.892 46.654 17.508C46.3127 17.124 46.046 16.6653 45.854 16.132C45.662 15.5987 45.566 15.0013 45.566 14.34C45.566 13.6893 45.662 13.0973 45.854 12.564C46.046 12.02 46.3127 11.556 46.654 11.172C47.006 10.788 47.422 10.4947 47.902 10.292C48.382 10.0787 48.9047 9.972 49.47 9.972C50.0353 9.972 50.558 10.0787 51.038 10.292C51.518 10.4947 51.9287 10.788 52.27 11.172C52.622 11.556 52.894 12.02 53.086 12.564C53.278 13.0973 53.374 13.6893 53.374 14.34ZM51.822 14.34C51.822 13.4013 51.6087 12.66 51.182 12.116C50.766 11.5613 50.1953 11.284 49.47 11.284C48.7447 11.284 48.1687 11.5613 47.742 12.116C47.326 12.66 47.118 13.4013 47.118 14.34C47.118 15.2787 47.326 16.0253 47.742 16.58C48.1687 17.124 48.7447 17.396 49.47 17.396C50.1953 17.396 50.766 17.124 51.182 16.58C51.6087 16.0253 51.822 15.2787 51.822 14.34ZM62.8115 14.34C62.8115 15.0013 62.7155 15.5987 62.5235 16.132C62.3315 16.6653 62.0595 17.124 61.7075 17.508C61.3662 17.892 60.9555 18.1907 60.4755 18.404C59.9955 18.6067 59.4728 18.708 58.9075 18.708C58.3422 18.708 57.8195 18.6067 57.3395 18.404C56.8595 18.1907 56.4435 17.892 56.0915 17.508C55.7502 17.124 55.4835 16.6653 55.2915 16.132C55.0995 15.5987 55.0035 15.0013 55.0035 14.34C55.0035 13.6893 55.0995 13.0973 55.2915 12.564C55.4835 12.02 55.7502 11.556 56.0915 11.172C56.4435 10.788 56.8595 10.4947 57.3395 10.292C57.8195 10.0787 58.3422 9.972 58.9075 9.972C59.4728 9.972 59.9955 10.0787 60.4755 10.292C60.9555 10.4947 61.3662 10.788 61.7075 11.172C62.0595 11.556 62.3315 12.02 62.5235 12.564C62.7155 13.0973 62.8115 13.6893 62.8115 14.34ZM61.2595 14.34C61.2595 13.4013 61.0462 12.66 60.6195 12.116C60.2035 11.5613 59.6328 11.284 58.9075 11.284C58.1822 11.284 57.6062 11.5613 57.1795 12.116C56.7635 12.66 56.5555 13.4013 56.5555 14.34C56.5555 15.2787 56.7635 16.0253 57.1795 16.58C57.6062 17.124 58.1822 17.396 58.9075 17.396C59.6328 17.396 60.2035 17.124 60.6195 16.58C61.0462 16.0253 61.2595 15.2787 61.2595 14.34ZM70.121 17.668C69.993 17.7533 69.7423 17.8653 69.369 18.004C69.0063 18.132 68.5797 18.196 68.089 18.196C67.5877 18.196 67.113 18.116 66.665 17.956C66.2277 17.796 65.8437 17.5507 65.513 17.22C65.1823 16.8787 64.921 16.4573 64.729 15.956C64.537 15.4547 64.441 14.8573 64.441 14.164C64.441 13.556 64.5317 13.0013 64.713 12.5C64.8943 11.988 65.1557 11.5507 65.497 11.188C65.849 10.8147 66.2757 10.5267 66.777 10.324C67.2783 10.1107 67.8437 10.004 68.473 10.004C69.1663 10.004 69.769 10.0573 70.281 10.164C70.8037 10.26 71.241 10.3507 71.593 10.436V17.86C71.593 19.14 71.2623 20.068 70.601 20.644C69.9397 21.22 68.937 21.508 67.593 21.508C67.0703 21.508 66.5743 21.4653 66.105 21.38C65.6463 21.2947 65.2463 21.1933 64.905 21.076L65.177 19.78C65.4757 19.8973 65.8383 19.9987 66.265 20.084C66.7023 20.18 67.1557 20.228 67.625 20.228C68.5103 20.228 69.145 20.052 69.529 19.7C69.9237 19.348 70.121 18.788 70.121 18.02V17.668ZM70.105 11.492C69.9557 11.4493 69.753 11.412 69.497 11.38C69.2517 11.3373 68.9157 11.316 68.489 11.316C67.689 11.316 67.0703 11.5773 66.633 12.1C66.2063 12.6227 65.993 13.316 65.993 14.18C65.993 14.66 66.0517 15.0707 66.169 15.412C66.297 15.7533 66.4623 16.036 66.665 16.26C66.8783 16.484 67.1183 16.6493 67.385 16.756C67.6623 16.8627 67.945 16.916 68.233 16.916C68.6277 16.916 68.9903 16.8627 69.321 16.756C69.6517 16.6387 69.913 16.5053 70.105 16.356V11.492ZM76.651 18.66C75.7337 18.6387 75.083 18.4413 74.699 18.068C74.315 17.6947 74.123 17.1133 74.123 16.324V6.34L75.611 6.084V16.084C75.611 16.3293 75.6323 16.532 75.675 16.692C75.7177 16.852 75.787 16.98 75.883 17.076C75.979 17.172 76.107 17.2467 76.267 17.3C76.427 17.3427 76.6243 17.38 76.859 17.412L76.651 18.66ZM78.066 14.356C78.066 13.62 78.1727 12.98 78.386 12.436C78.5993 11.8813 78.882 11.4227 79.234 11.06C79.586 10.6973 79.9913 10.4253 80.45 10.244C80.9087 10.0627 81.378 9.972 81.858 9.972C82.978 9.972 83.8367 10.324 84.434 11.028C85.0313 11.7213 85.33 12.7827 85.33 14.212C85.33 14.276 85.33 14.3613 85.33 14.468C85.33 14.564 85.3247 14.6547 85.314 14.74H79.618C79.682 15.604 79.9327 16.26 80.37 16.708C80.8073 17.156 81.49 17.38 82.418 17.38C82.9407 17.38 83.378 17.3373 83.73 17.252C84.0927 17.156 84.3647 17.0653 84.546 16.98L84.754 18.228C84.5727 18.324 84.2527 18.4253 83.794 18.532C83.346 18.6387 82.834 18.692 82.258 18.692C81.5327 18.692 80.9033 18.5853 80.37 18.372C79.8473 18.148 79.4153 17.844 79.074 17.46C78.7327 17.076 78.4767 16.6227 78.306 16.1C78.146 15.5667 78.066 14.9853 78.066 14.356ZM83.778 13.54C83.7887 12.868 83.618 12.3187 83.266 11.892C82.9247 11.4547 82.45 11.236 81.842 11.236C81.5007 11.236 81.1967 11.3053 80.93 11.444C80.674 11.572 80.4553 11.7427 80.274 11.956C80.0927 12.1693 79.9487 12.4147 79.842 12.692C79.746 12.9693 79.682 13.252 79.65 13.54H83.778ZM97.9386 17.156V18.5H91.2666V7.412H92.8186V17.156H97.9386ZM106.624 14.34C106.624 15.0013 106.528 15.5987 106.336 16.132C106.144 16.6653 105.872 17.124 105.52 17.508C105.179 17.892 104.768 18.1907 104.288 18.404C103.808 18.6067 103.285 18.708 102.72 18.708C102.155 18.708 101.632 18.6067 101.152 18.404C100.672 18.1907 100.256 17.892 99.904 17.508C99.5627 17.124 99.296 16.6653 99.104 16.132C98.912 15.5987 98.816 15.0013 98.816 14.34C98.816 13.6893 98.912 13.0973 99.104 12.564C99.296 12.02 99.5627 11.556 99.904 11.172C100.256 10.788 100.672 10.4947 101.152 10.292C101.632 10.0787 102.155 9.972 102.72 9.972C103.285 9.972 103.808 10.0787 104.288 10.292C104.768 10.4947 105.179 10.788 105.52 11.172C105.872 11.556 106.144 12.02 106.336 12.564C106.528 13.0973 106.624 13.6893 106.624 14.34ZM105.072 14.34C105.072 13.4013 104.859 12.66 104.432 12.116C104.016 11.5613 103.445 11.284 102.72 11.284C101.995 11.284 101.419 11.5613 100.992 12.116C100.576 12.66 100.368 13.4013 100.368 14.34C100.368 15.2787 100.576 16.0253 100.992 16.58C101.419 17.124 101.995 17.396 102.72 17.396C103.445 17.396 104.016 17.124 104.432 16.58C104.859 16.0253 105.072 15.2787 105.072 14.34ZM113.934 17.668C113.806 17.7533 113.555 17.8653 113.182 18.004C112.819 18.132 112.392 18.196 111.902 18.196C111.4 18.196 110.926 18.116 110.478 17.956C110.04 17.796 109.656 17.5507 109.326 17.22C108.995 16.8787 108.734 16.4573 108.542 15.956C108.35 15.4547 108.254 14.8573 108.254 14.164C108.254 13.556 108.344 13.0013 108.526 12.5C108.707 11.988 108.968 11.5507 109.31 11.188C109.662 10.8147 110.088 10.5267 110.59 10.324C111.091 10.1107 111.656 10.004 112.286 10.004C112.979 10.004 113.582 10.0573 114.094 10.164C114.616 10.26 115.054 10.3507 115.406 10.436V17.86C115.406 19.14 115.075 20.068 114.414 20.644C113.752 21.22 112.75 21.508 111.406 21.508C110.883 21.508 110.387 21.4653 109.918 21.38C109.459 21.2947 109.059 21.1933 108.718 21.076L108.99 19.78C109.288 19.8973 109.651 19.9987 110.078 20.084C110.515 20.18 110.968 20.228 111.438 20.228C112.323 20.228 112.958 20.052 113.342 19.7C113.736 19.348 113.934 18.788 113.934 18.02V17.668ZM113.918 11.492C113.768 11.4493 113.566 11.412 113.31 11.38C113.064 11.3373 112.728 11.316 112.302 11.316C111.502 11.316 110.883 11.5773 110.446 12.1C110.019 12.6227 109.806 13.316 109.806 14.18C109.806 14.66 109.864 15.0707 109.982 15.412C110.11 15.7533 110.275 16.036 110.478 16.26C110.691 16.484 110.931 16.6493 111.198 16.756C111.475 16.8627 111.758 16.916 112.046 16.916C112.44 16.916 112.803 16.8627 113.134 16.756C113.464 16.6387 113.726 16.5053 113.918 16.356V11.492ZM119.456 18.5H117.968V10.18H119.456V18.5ZM118.704 8.676C118.437 8.676 118.208 8.59067 118.016 8.42C117.834 8.23867 117.743 7.99867 117.743 7.7C117.743 7.40133 117.834 7.16667 118.016 6.996C118.208 6.81467 118.437 6.724 118.704 6.724C118.97 6.724 119.194 6.81467 119.376 6.996C119.568 7.16667 119.664 7.40133 119.664 7.7C119.664 7.99867 119.568 8.23867 119.376 8.42C119.194 8.59067 118.97 8.676 118.704 8.676ZM122.014 10.42C122.356 10.3347 122.809 10.244 123.374 10.148C123.94 10.052 124.59 10.004 125.326 10.004C125.988 10.004 126.537 10.1 126.974 10.292C127.412 10.4733 127.758 10.7347 128.014 11.076C128.281 11.4067 128.468 11.8067 128.574 12.276C128.681 12.7453 128.734 13.2627 128.734 13.828V18.5H127.246V14.148C127.246 13.636 127.209 13.1987 127.134 12.836C127.07 12.4733 126.958 12.18 126.798 11.956C126.638 11.732 126.425 11.572 126.158 11.476C125.892 11.3693 125.561 11.316 125.166 11.316C125.006 11.316 124.841 11.3213 124.67 11.332C124.5 11.3427 124.334 11.3587 124.174 11.38C124.025 11.3907 123.886 11.4067 123.758 11.428C123.641 11.4493 123.556 11.4653 123.502 11.476V18.5H122.014V10.42Z" fill="black"/>
</svg>
