<svg width="40" height="40" viewBox="0 0 40 40" fill="none" xmlns="http://www.w3.org/2000/svg">
<path d="M6.72222 29H34.2778C35.225 29 36 28.2875 36 27.4167C36 26.5458 35.225 25.8333 34.2778 25.8333H6.72222C5.775 25.8333 5 26.5458 5 27.4167C5 28.2875 5.775 29 6.72222 29ZM6.72222 21.0833H34.2778C35.225 21.0833 36 20.3708 36 19.5C36 18.6292 35.225 17.9167 34.2778 17.9167H6.72222C5.775 17.9167 5 18.6292 5 19.5C5 20.3708 5.775 21.0833 6.72222 21.0833ZM5 11.5833C5 12.4542 5.775 13.1667 6.72222 13.1667H34.2778C35.225 13.1667 36 12.4542 36 11.5833C36 10.7125 35.225 10 34.2778 10H6.72222C5.775 10 5 10.7125 5 11.5833Z" fill="#125566"/>
</svg>
