<svg width="430" height="349" viewBox="0 0 430 349" fill="none" xmlns="http://www.w3.org/2000/svg">
<path d="M9.34601e-05 165.178C0.000160267 123.977 0.000244141 30.9119 0.000391483 -3C24.1 -2.99983 91.9025 -0.612803 132 -0.612807L298 -0.612821C337.208 -0.612824 397.6 -0.612807 430 -0.612869C430 29.0279 430 122.86 430 165.179L430 259.716C430 285.425 408.381 302.066 390.143 290.396C381.937 285.146 372.181 285.421 364.171 291.129L332.986 313.352C315.769 325.621 295.908 330.755 276.232 328.02L220.296 320.247C199.72 317.388 178.898 320.647 159.511 329.761L135.605 340.999C114.791 350.783 91.9817 351.618 70.7499 343.373C28.6849 327.038 0 278.188 0 222.887L9.34601e-05 165.178Z" fill="url(#paint0_linear_109_214)"/>
<defs>
<linearGradient id="paint0_linear_109_214" x1="215" y1="-3" x2="215" y2="349" gradientUnits="userSpaceOnUse">
<stop stop-color="#66BCB4"/>
<stop offset="1" stop-color="#125566"/>
</linearGradient>
</defs>
</svg>
