<svg width="22" height="22" viewBox="0 0 22 22" fill="none" xmlns="http://www.w3.org/2000/svg">
<path d="M20.4453 8.37969C20.1153 8.03563 19.775 7.68031 19.6634 7.41125C19.5641 7.17125 19.5566 6.67719 19.55 6.24219C19.5359 5.30469 19.5181 4.13844 18.6894 3.31063C17.8606 2.48281 16.6953 2.46687 15.7578 2.45C15.3228 2.44344 14.8287 2.43594 14.5887 2.33656C14.3197 2.225 13.9644 1.88469 13.6203 1.55469C12.9566 0.918125 12.1297 0.125 11 0.125C9.87031 0.125 9.04344 0.918125 8.37969 1.55469C8.03563 1.88469 7.68031 2.225 7.41125 2.33656C7.17125 2.43594 6.67719 2.44344 6.24219 2.45C5.30469 2.46875 4.13844 2.48187 3.3125 3.3125C2.48656 4.14313 2.46875 5.30469 2.45 6.24219C2.44344 6.67719 2.43594 7.17125 2.33656 7.41125C2.225 7.68031 1.88469 8.03563 1.55469 8.37969C0.918125 9.04344 0.125 9.875 0.125 11C0.125 12.125 0.918125 12.9566 1.55469 13.625C1.88469 13.9691 2.225 14.3244 2.33656 14.5934C2.43594 14.8334 2.44344 15.3275 2.45 15.7625C2.46406 16.7 2.48187 17.8663 3.31063 18.6941C4.13937 19.5219 5.30469 19.5378 6.24219 19.5547C6.67719 19.5613 7.17125 19.5688 7.41125 19.6681C7.68031 19.7797 8.03563 20.12 8.37969 20.45C9.04344 21.0819 9.875 21.875 11 21.875C12.125 21.875 12.9566 21.0819 13.6203 20.4453C13.9644 20.1153 14.3197 19.775 14.5887 19.6634C14.8287 19.5641 15.3228 19.5566 15.7578 19.55C16.6953 19.5359 17.8616 19.5181 18.6894 18.6894C19.5172 17.8606 19.5331 16.6953 19.55 15.7578C19.5566 15.3228 19.5641 14.8287 19.6634 14.5887C19.775 14.3197 20.1153 13.9644 20.4453 13.6203C21.0819 12.9566 21.875 12.1297 21.875 11C21.875 9.87031 21.0819 9.04344 20.4453 8.37969ZM18.8216 12.0631C18.3697 12.5319 17.8578 13.0681 17.585 13.7281C17.3206 14.3656 17.3103 15.0556 17.3038 15.7241C17.2963 16.2266 17.2859 16.9156 17.1022 17.0984C16.9184 17.2812 16.2303 17.2925 15.7278 17.3C15.0594 17.3103 14.3694 17.3206 13.7319 17.5812C13.0756 17.8541 12.5384 18.3659 12.0669 18.8178C11.7294 19.1413 11.225 19.625 11 19.625C10.775 19.625 10.2706 19.1412 9.93688 18.8216C9.46813 18.3697 8.93188 17.8578 8.27188 17.585C7.63438 17.3206 6.94438 17.3103 6.27594 17.3038C5.77344 17.2963 5.08437 17.2859 4.90156 17.1022C4.71875 16.9184 4.7075 16.2303 4.7 15.7278C4.68969 15.0594 4.67937 14.3694 4.41875 13.7319C4.14594 13.0756 3.63406 12.5384 3.18219 12.0669C2.85875 11.7294 2.375 11.225 2.375 11C2.375 10.775 2.85875 10.2706 3.17844 9.93688C3.63031 9.46813 4.14219 8.93188 4.415 8.27188C4.67937 7.63438 4.68969 6.94438 4.69625 6.27594C4.7075 5.77344 4.71875 5.08437 4.90625 4.90625C5.09375 4.72813 5.77813 4.71219 6.28063 4.70469C6.94906 4.69438 7.63906 4.68406 8.27656 4.42344C8.93281 4.15062 9.47 3.63875 9.94156 3.18687C10.2706 2.85875 10.775 2.375 11 2.375C11.225 2.375 11.7294 2.85875 12.0631 3.17844C12.5319 3.63031 13.0681 4.14219 13.7281 4.415C14.3656 4.67937 15.0556 4.68969 15.7241 4.69625C16.2266 4.70375 16.9156 4.71406 17.0984 4.89781C17.2812 5.08156 17.2925 5.76969 17.3 6.27219C17.3103 6.94063 17.3206 7.63063 17.5812 8.26813C17.8541 8.92438 18.3659 9.46156 18.8178 9.93313C19.1375 10.2669 19.6213 10.7712 19.6213 10.9963C19.6213 11.2212 19.1412 11.7294 18.8216 12.0631ZM15.5459 7.95406C15.6508 8.05858 15.734 8.18277 15.7908 8.31952C15.8476 8.45626 15.8768 8.60287 15.8768 8.75094C15.8768 8.899 15.8476 9.04561 15.7908 9.18236C15.734 9.3191 15.6508 9.4433 15.5459 9.54781L10.2959 14.7978C10.1914 14.9027 10.0672 14.9859 9.93048 15.0427C9.79374 15.0995 9.64713 15.1287 9.49906 15.1287C9.351 15.1287 9.20439 15.0995 9.06764 15.0427C8.9309 14.9859 8.8067 14.9027 8.70219 14.7978L6.45219 12.5478C6.34754 12.4432 6.26453 12.3189 6.2079 12.1822C6.15126 12.0455 6.12211 11.8989 6.12211 11.7509C6.12211 11.6029 6.15126 11.4564 6.2079 11.3197C6.26453 11.1829 6.34754 11.0587 6.45219 10.9541C6.55683 10.8494 6.68107 10.7664 6.8178 10.7098C6.95452 10.6531 7.10107 10.624 7.24906 10.624C7.39706 10.624 7.5436 10.6531 7.68033 10.7098C7.81706 10.7664 7.94129 10.8494 8.04594 10.9541L9.5 12.4062L13.9541 7.95125C14.0587 7.84684 14.183 7.76408 14.3196 7.7077C14.4563 7.65133 14.6027 7.62245 14.7506 7.62271C14.8984 7.62297 15.0448 7.65237 15.1812 7.70922C15.3177 7.76608 15.4416 7.84928 15.5459 7.95406Z" fill="#10C500"/>
</svg>
